<?xml version="1.0" encoding="UTF-8"?>
<svg width="16px" height="20px" viewBox="0 0 16 20" version="1.1" xmlns="http://www.w3.org/2000/svg" xmlns:xlink="http://www.w3.org/1999/xlink">
    <!-- Generator: Sketch 49 (51002) - http://www.bohemiancoding.com/sketch -->
    <title>notif</title>
    <desc>Created with Sketch.</desc>
    <defs></defs>
    <g id="Page-1" stroke="none" stroke-width="1" fill="none" fill-rule="evenodd">
        <g id="Riders-List" transform="translate(-62.000000, -44.000000)" fill="#FFFFFF" fill-rule="nonzero">
            <g id="app-bar-+-status-bar">
                <g id="app-bar">
                    <path d="M70,63.5 C71.1,63.5 72,62.6 72,61.5 L68,61.5 C68,62.6 68.89,63.5 70,63.5 Z M76,57.5 L76,52.5 C76,49.43 74.36,46.86 71.5,46.18 L71.5,45.5 C71.5,44.67 70.83,44 70,44 C69.17,44 68.5,44.67 68.5,45.5 L68.5,46.18 C65.63,46.86 64,49.42 64,52.5 L64,57.5 L62,59.5 L62,60.5 L78,60.5 L78,59.5 L76,57.5 Z" id="notif"></path>
                </g>
            </g>
        </g>
    </g>
</svg>