<?xml version="1.0" encoding="UTF-8"?>
<svg width="20px" height="20px" viewBox="0 0 20 20" version="1.1" xmlns="http://www.w3.org/2000/svg" xmlns:xlink="http://www.w3.org/1999/xlink">
    <!-- Generator: Sketch 49 (51002) - http://www.bohemiancoding.com/sketch -->
    <title>profile</title>
    <desc>Created with Sketch.</desc>
    <defs></defs>
    <g id="Page-1" stroke="none" stroke-width="1" fill="none" fill-rule="evenodd">
        <g id="Riders-List" transform="translate(-16.000000, -44.000000)" fill="#FFFFFF" fill-rule="nonzero">
            <g id="app-bar-+-status-bar">
                <g id="app-bar">
                    <g id="profile" transform="translate(16.000000, 44.000000)">
                        <path d="M12.673913,7.56521739 C12.673913,9.02173913 11.5,10.1956522 10.0434783,10.1956522 C8.58695652,10.1956522 7.41304348,9.02173913 7.41304348,7.56521739 C7.41304348,6.10869565 8.58695652,4.93478261 10.0434783,4.93478261 C11.5,4.93478261 12.673913,6.10869565 12.673913,7.56521739 Z M10,0.130434783 C4.56521739,0.130434783 0.130434783,4.56521739 0.130434783,10 C0.130434783,15.4347826 4.56521739,19.8695652 10,19.8695652 C15.4347826,19.8695652 19.8695652,15.4347826 19.8695652,10 C19.8695652,4.56521739 15.4347826,0.130434783 10,0.130434783 Z M14.5217391,16.4347826 C14.1956522,13.7826087 13.1086957,11.0869565 10.0434783,11.0869565 C6.95652174,11.0869565 5.89130435,13.826087 5.56521739,16.5 C3.5,15.0652174 2.13043478,12.6956522 2.13043478,10 C2.13043478,5.67391304 5.65217391,2.13043478 10,2.13043478 C14.326087,2.13043478 17.8695652,5.65217391 17.8695652,10 C17.8695652,12.6521739 16.5434783,15 14.5217391,16.4347826 Z" id="Shape"></path>
                    </g>
                </g>
            </g>
        </g>
    </g>
</svg>